Flysurfer teamrider Mathias Wichmann has finished his Australian Road Trip Movie, 
called ΓÇ£The Wizards of OZΓÇ¥.

General
Complete name : H:MoviesKiteBoarding VideosTheWizardsofOZ-A_Kiteboarding_Trip_to_Australia.wmv
Format : Windows Media
File size : 210 MiB
Duration : 15mn 39s
Overall bit rate mode : Constant
Overall bit rate : 1 872 Kbps
Maximum Overall bit rate : 2 083 Kbps
Movie name : WoO
Performer : 
Encoded date : UTC 2008-11-14 17:19:03.921
Copyright : ┬⌐ 
Video
ID : 2
Format : VC-1
Format profile : MP@HL
Codec ID : WMV3
Codec ID/Info : Windows Media Video 9
Codec ID/Hint : WMV3
Description of the codec : Windows Media Video 9 - Professional
Duration : 15mn 39s
Bit rate mode : Constant
Bit rate : 2 000 Kbps
Width : 768 pixels
Height : 576 pixels
Display aspect ratio : 4:3
Frame rate : 25.000 fps
Bit depth : 8 bits
Scan type : Progressive
Bits/(Pixel*Frame) : 0.181
Stream size : 224 MiB
Language : English (US)
Audio
ID : 1
Format : WMA
Format version : Version 2
Codec ID : 161
Codec ID/Info : Windows Media Audio
Description of the codec : Windows Media Audio 9.1 - 64 kbps, 44 kHz, stereo (A/V) 1-pass CBR
Duration : 15mn 39s
Bit rate mode : Constant
Bit rate : 64.0 Kbps
Channel(s) : 2 channels
Sampling rate : 44.1 KHz
Bit depth : 16 bits
Stream size : 7.17 MiB (3%)
Language : English (US)

Hope you enjoy a little adventure video full of nature, kiteboarding and pure fun..
Don't forget to comment and seed !